<svg aria-hidden="true" style="position: absolute; width: 0; height: 0; overflow: hidden;" version="1.1" xmlns="http://www.w3.org/2000/svg" xmlns:xlink="http://www.w3.org/1999/xlink">
<defs>
<symbol id="icon-instagram-167-svgrepo-com" viewBox="0 0 32 32">
<path d="M9.391 0.196c-2.605 0.118-4.862 0.754-6.685 2.57-1.829 1.825-2.458 4.091-2.576 6.668-0.073 1.609-0.501 13.763 0.74 16.95 0.837 2.15 2.487 3.804 4.657 4.644 1.013 0.394 2.168 0.661 3.864 0.738 14.177 0.642 19.433 0.292 21.649-5.382 0.393-1.010 0.664-2.165 0.739-3.856 0.648-14.214-0.105-17.295-2.576-19.763-1.96-1.955-4.265-3.286-19.812-2.57zM9.522 28.908c-1.552-0.070-2.394-0.329-2.956-0.546-1.414-0.549-2.476-1.607-3.022-3.013-0.946-2.422-0.632-13.925-0.548-15.786 0.083-1.823 0.452-3.489 1.739-4.775 1.592-1.588 3.649-2.366 17.654-1.734 1.828 0.083 3.498 0.451 4.787 1.734 1.592 1.588 2.382 3.661 1.739 17.612-0.070 1.548-0.33 2.389-0.548 2.949-1.441 3.692-4.756 4.205-18.845 3.559zM22.543 7.503c0 1.051 0.855 1.906 1.91 1.906s1.912-0.854 1.912-1.906c0-1.051-0.857-1.906-1.912-1.906s-1.91 0.854-1.91 1.906zM7.78 15.981c0 4.504 3.66 8.155 8.175 8.155s8.175-3.651 8.175-8.155c0-4.504-3.66-8.153-8.175-8.153s-8.175 3.649-8.175 8.153zM10.649 15.981c0-2.922 2.375-5.293 5.306-5.293s5.306 2.371 5.306 5.293c0 2.924-2.375 5.295-5.306 5.295s-5.306-2.371-5.306-5.295z"></path>
</symbol>
<symbol id="icon-facebook-svgrepo-com" viewBox="0 0 32 32">
<path d="M16 2.72c-7.333 0-13.333 5.987-13.333 13.36 0 6.667 4.88 12.2 11.253 13.2v-9.333h-3.387v-3.867h3.387v-2.947c0-3.347 1.987-5.187 5.040-5.187 1.453 0 2.973 0.253 2.973 0.253v3.293h-1.68c-1.653 0-2.173 1.027-2.173 2.080v2.507h3.707l-0.6 3.867h-3.107v9.333c3.142-0.496 6.003-2.099 8.067-4.52s3.194-5.499 3.187-8.68c0-7.373-6-13.36-13.333-13.36z"></path>
</symbol>
<symbol id="icon-acoustic-guitar-svgrepo-com" viewBox="0 0 32 32">
<path d="M27.197 0.506c0.5-0.5 1.31-0.5 1.81 0l1.92 1.92c0.5 0.5 0.5 1.31 0 1.81l-3.011 3.011c-0.5 0.5-1.31 0.5-1.81 0l-0.055-0.055-1.736 1.735c0.982 1.242 1.702 2.702 2.084 4.302 0.765 3.202-1.076 6.479-4.195 7.551-1.559 0.536-2.778 1.729-3.037 3.41l-0.105 0.682c-0.548 3.553-3.769 6.122-7.348 5.838-5.896-0.467-10.524-5.096-10.992-10.992-0.284-3.579 2.285-6.8 5.838-7.348l0.682-0.105c1.68-0.259 2.874-1.478 3.41-3.037 1.072-3.12 4.35-4.961 7.551-4.195 1.601 0.383 3.061 1.103 4.302 2.085l1.736-1.735-0.055-0.055c-0.5-0.5-0.5-1.31 0-1.81l3.011-3.011zM18.558 11.065l2.121-2.121c-0.9-0.661-1.939-1.15-3.071-1.421-2.097-0.501-3.957 0.854-4.621 2.787-0.814 2.368-2.883 4.104-5.355 4.486l-0.682 0.105c-2.239 0.346-3.853 2.385-3.676 4.616 0.368 4.642 4 8.274 8.642 8.642 2.232 0.177 4.27-1.437 4.616-3.676l0.105-0.682c0.381-2.472 2.118-4.541 4.486-5.355 1.932-0.664 3.288-2.524 2.787-4.621-0.271-1.133-0.76-2.171-1.421-3.071l-2.121 2.121c-0.5 0.5-1.31 0.5-1.81 0s-0.5-1.31 0-1.81zM15.36 19.2c1.767 0 3.2-1.433 3.2-3.2s-1.433-3.2-3.2-3.2c-1.767 0-3.2 1.433-3.2 3.2s1.433 3.2 3.2 3.2z"></path>
</symbol>
<symbol id="icon-menu" viewBox="0 0 32 32">
<path d="M4.571 8c0-0.631 0.512-1.143 1.143-1.143v0h21.714c0.631 0 1.143 0.512 1.143 1.143s-0.512 1.143-1.143 1.143v0h-21.714c-0.631 0-1.143-0.512-1.143-1.143v0zM4.571 16c0-0.631 0.512-1.143 1.143-1.143v0h12.571c0.631 0 1.143 0.512 1.143 1.143s-0.512 1.143-1.143 1.143v0h-12.571c-0.631 0-1.143-0.512-1.143-1.143v0zM5.714 22.857c-0.631 0-1.143 0.512-1.143 1.143s0.512 1.143 1.143 1.143v0h19.429c0.631 0 1.143-0.512 1.143-1.143s-0.512-1.143-1.143-1.143v0z"></path>
</symbol>
</defs>
</svg>
